{"title":"Indecent Proposal (1993) Demi Moore/Woody Harrelson/Redford","uid":4387372,"size":1468947764,"categoryP":"video","categoryS":"movies","magnet":"?xt=urn:btih:b7239ae9118fc67462d3c5f9eb25ab9963115eae&amp;dn=Indecent+Proposal+%281993%29+Demi+Moore%2FWoody+Harrelson%2FRedford&amp;tr=udp%3A%2F%2Ftracker.openbittorrent.com%3A80&amp;tr=udp%3A%2F%2Fopen.demonii.com%3A1337&amp;tr=udp%3A%2F%2Ftracker.coppersurfer.tk%3A6969&amp;tr=udp%3A%2F%2Fexodus.desync.com%3A6969","seeders":2,"leechers":0,"uploader":"Kuthumi","files":-1,"time":1220987085,"description":" &lt;a href=&quot;http://www.imdb.com/title/tt0107211/&quot; rel=&quot;nofollow&quot; target=&quot;_NEW&quot;&gt;http://www.imdb.com/title/tt0107211/&lt;/a&gt;\n\nOptional Romanian subs in separate idx/sub files.\n\nClassic where a millionaire offers a young couple 1 million dollars if he can sleep with the wife.\n\nThis is not my rip, I found it on the net using PirateBay's tracker, so I thought it should be represented here.\n\nDVDrip, Widescreen 640x352, good stereo AC-3.\n\nBurn tested, runs well in both my standalone DivX players.\n\nFormat/Info                      : Audio Video Interleave\nFile size                        : 700 MiB\nDuration                         : 56mn 14s\nOveral bit rate                  : 1740 Kbps\nMovie name                       : Indecent Proposal CD1\nDirector                         : ..::[ BuSyKa ]::..\nWriting application              : Nandub v1.0rc2\nCopyright                        : &lt;a class=&quot;__cf_email__&quot; href=&quot;/cdn-cgi/l/email-protection&quot; data-cfemail=&quot;b8facdebc1f3d9f8c1d9d0d7d796dbd7d5&quot;&gt;[email&amp;#160;protected]&lt;/a&gt;&lt;script cf-hash='f9e31' type=&quot;text/javascript&quot;&gt;\n/* &lt;![CDATA[ */!function(){try{var t=&quot;currentScript&quot;in document?document.currentScript:function(){for(var t=document.getElementsByTagName(&quot;script&quot;),e=t.length;e--;)if(t[e].getAttribute(&quot;cf-hash&quot;))return t[e]}();if(t&amp;&amp;t.previousSibling){var e,r,n,i,c=t.previousSibling,a=c.getAttribute(&quot;data-cfemail&quot;);if(a){for(e=&quot;&quot;,r=parseInt(a.substr(0,2),16),n=2;a.length-n;n+=2)i=parseInt(a.substr(n,2),16)^r,e+=String.fromCharCode(i);e=document.createTextNode(e),c.parentNode.replaceChild(e,c)}}}catch(u){}}();/* ]]&gt; */&lt;/script&gt;\nComment                          : &lt;a class=&quot;__cf_email__&quot; href=&quot;/cdn-cgi/l/email-protection&quot; data-cfemail=&quot;480a3d1b310329083129202727662b2725&quot;&gt;[email&amp;#160;protected]&lt;/a&gt;&lt;script cf-hash='f9e31' type=&quot;text/javascript&quot;&gt;\n/* &lt;![CDATA[ */!function(){try{var t=&quot;currentScript&quot;in document?document.currentScript:function(){for(var t=document.getElementsByTagName(&quot;script&quot;),e=t.length;e--;)if(t[e].getAttribute(&quot;cf-hash&quot;))return t[e]}();if(t&amp;&amp;t.previousSibling){var e,r,n,i,c=t.previousSibling,a=c.getAttribute(&quot;data-cfemail&quot;);if(a){for(e=&quot;&quot;,r=parseInt(a.substr(0,2),16),n=2;a.length-n;n+=2)i=parseInt(a.substr(n,2),16)^r,e+=String.fromCharCode(i);e=document.createTextNode(e),c.parentNode.replaceChild(e,c)}}}catch(u){}}();/* ]]&gt; */&lt;/script&gt;\n\nVideo\nFormat                           : MPEG-4 Visual\nCodec ID                         : DIV3\nCodec ID/Hint                    : DivX 3 Low\nDuration                         : 56mn 14s\nBit rate                         : 1283 Kbps\nWidth                            : 640 pixels\nHeight                           : 352 pixels\nDisplay aspect ratio             : 16/9\nFrame rate                       : 23.976 fps\nResolution                       : 24 bits\nBits/(Pixel*Frame)               : 0.237\nStream size                      : 516 MiB\n\nAudio\nFormat                           : AC-3\nFormat/Info                      : Audio Coding 3\nCodec ID                         : 2000\nBit rate mode                    : Constant\nBit rate                         : 448 Kbps\nChannel(s)                       : 6 channels\nChannel positions                : Front: L C R, Rear: L R, LFE\nSampling rate                    : 48.0 KHz\nStream size                      : 180 MiB\n","torrent":{"xt":"urn:btih:b7239ae9118fc67462d3c5f9eb25ab9963115eae","amp;dn":"Indecent+Proposal+%281993%29+Demi+Moore%2FWoody+Harrelson%2FRedford","amp;tr":["udp%3A%2F%2Ftracker.openbittorrent.com%3A80","udp%3A%2F%2Fopen.demonii.com%3A1337","udp%3A%2F%2Ftracker.coppersurfer.tk%3A6969","udp%3A%2F%2Fexodus.desync.com%3A6969"],"infoHash":"b7239ae9118fc67462d3c5f9eb25ab9963115eae","infoHashBuffer":{"type":"Buffer","data":[183,35,154,233,17,143,198,116,98,211,197,249,235,37,171,153,99,17,94,174]},"announce":[],"urlList":[]}}